<svg xmlns="http://www.w3.org/2000/svg" viewBox="0 0 1000 1800"><g transform="translate(0 0)"><title>Капюшон Собирателя</title><path stroke="#172126" stroke-width="3" stroke-linejoin="round" stroke-linecap="round" fill="#5b4635" d="M73 36q27-29 54 0l11 47-19 29H81L62 83Z"/><path fill="#252321" d="M81 55q19-17 38 0l7 27-14 18H88L74 82Z"/></g><g transform="translate(200 0)"><title>Шлем Дозорного</title><path stroke="#172126" stroke-width="3" stroke-linejoin="round" stroke-linecap="round" fill="#66767d" d="M70 88V57q0-32 30-32t30 32v31Z"/><path fill="#24333a" d="M74 67h52v16H74Z"/><path fill="#62c8ef" d="M83 72h34v5H83Z"/><path fill="#c98a42" d="m100 18 8 18H92Z"/></g><g transform="translate(400 0)"><title>Маска Ржавого Консула</title><path stroke="#172126" stroke-width="3" stroke-linejoin="round" stroke-linecap="round" fill="#4a2c36" d="m100 25 31 23-7 60-24 20-24-20-7-60Z"/><path fill="#b77738" d="m100 35 20 18-6 47-14 12-14-12-6-47Z"/><path fill="#ff8a36" d="m85 66 12 4-13 7Zm30 0-12 4 13 7Z"/></g><g transform="translate(600 0)"><title>Печать Путника</title><path fill="none" stroke="#c89754" stroke-width="4" d="M80 105q20 23 40 0"/><circle stroke="#172126" stroke-width="3" stroke-linejoin="round" stroke-linecap="round" cx="100" cy="119" r="12" fill="#6d5235"/><path fill="#81e2ff" d="m100 111 5 9-5 8-5-8Z"/></g><g transform="translate(800 0)"><title>Око Архивариуса</title><path fill="none" stroke="#718791" stroke-width="4" d="M78 104q22 25 44 0"/><path stroke="#172126" stroke-width="3" stroke-linejoin="round" stroke-linecap="round" fill="#284b62" d="M83 119q17-16 34 0-17 16-34 0Z"/><circle cx="100" cy="119" r="6" fill="#5be1ff"/></g><g transform="translate(0 360)"><title>Наплечники Рубежа</title><path stroke="#172126" stroke-width="3" stroke-linejoin="round" stroke-linecap="round" fill="#536771" d="M43 124q22-30 48-7l-8 28-44 10Z"/><path stroke="#172126" stroke-width="3" stroke-linejoin="round" stroke-linecap="round" fill="#536771" d="M157 124q-22-30-48-7l8 28 44 10Z"/><path fill="#b47b3d" d="m49 126 34-8-3 11-34 8Zm102 0-34-8 3 11 34 8Z"/></g><g transform="translate(200 360)"><title>Плащ Пепельной Дороги</title><path stroke="#172126" stroke-width="3" stroke-linejoin="round" stroke-linecap="round" fill="#6b4035" d="M69 105h62l20 185-30-18-21 22-21-22-30 18Z"/><path fill="#a16140" d="M76 111h48l-7 21H83Z"/></g><g transform="translate(400 360)"><title>Плащ Синего Знамени</title><path stroke="#172126" stroke-width="3" stroke-linejoin="round" stroke-linecap="round" fill="#285c88" d="M69 105h62l20 185-30-18-21 22-21-22-30 18Z"/><path fill="#69b6e2" d="M76 111h48l-7 21H83Z"/><path fill="#e6f4ff" d="m100 147 14 14-14 14-14-14Z"/></g><g transform="translate(600 360)"><title>Куртка Пограничника</title><path stroke="#172126" stroke-width="3" stroke-linejoin="round" stroke-linecap="round" fill="#805f45" d="m63 126 26-15 11 13 11-13 26 15-12 98H75Z"/><path fill="#c9baa0" d="m91 124 9 12 9-12 8 78H83Z"/><path stroke="#2b221c" stroke-width="6" d="M76 185h48"/><rect x="93" y="179" width="14" height="12" rx="2" fill="#c98942"/></g><g transform="translate(800 360)"><title>Панцирь Старой Стражи</title><path stroke="#172126" stroke-width="3" stroke-linejoin="round" stroke-linecap="round" fill="#60727b" d="m60 128 27-18 13 11 13-11 27 18-14 98H74Z"/><path fill="#293a43" d="m82 132 18-9 18 9 7 71-25 22-25-22Z"/><path fill="#c58c43" d="M96 129h8v84h-8Z"/></g><g transform="translate(0 720)"><title>Кираса Ржавого Консула</title><path stroke="#172126" stroke-width="3" stroke-linejoin="round" stroke-linecap="round" fill="#3d3050" d="m57 128 30-20 13 12 13-12 30 20-14 102H71Z"/><path fill="#1f3b50" d="m100 127 25 18-7 61-18 17-18-17-7-61Z"/><circle cx="100" cy="161" r="17" fill="#b86cff"/><circle cx="100" cy="161" r="7" fill="#dffcff"/></g><g transform="translate(200 720)"><title>Наручи Искателя</title><path stroke="#172126" stroke-width="3" stroke-linejoin="round" stroke-linecap="round" fill="#7c5c43" d="m49 177 29 10-9 34-28-10Z"/><path stroke="#172126" stroke-width="3" stroke-linejoin="round" stroke-linecap="round" fill="#7c5c43" d="m151 177-29 10 9 34 28-10Z"/><path stroke="#c18a4c" stroke-width="5" d="m47 192 26 9m80-9-26 9"/></g><g transform="translate(400 720)"><title>Перчатки Сервомастера</title><path stroke="#172126" stroke-width="3" stroke-linejoin="round" stroke-linecap="round" fill="#4b3830" d="m43 201 29 12-7 32-23 8-13-22Z"/><path stroke="#172126" stroke-width="3" stroke-linejoin="round" stroke-linecap="round" fill="#4b3830" d="m157 201-29 12 7 32 23 8 13-22Z"/><path fill="#8a6748" d="m38 210 28 12-3 12-29-12Zm124 0-28 12 3 12 29-12Z"/></g><g transform="translate(600 720)"><title>Пояс Механика</title><path stroke="#172126" stroke-width="3" stroke-linejoin="round" stroke-linecap="round" fill="#704b2f" d="M72 215h56v19H72Z"/><rect x="92" y="211" width="16" height="26" rx="3" fill="#c68840" stroke="#172126" stroke-width="3"/><path fill="#362820" d="M75 233h15v21H75zm35 0h15v21h-15z"/></g><g transform="translate(800 720)"><title>Штаны Пыльной Тропы</title><path stroke="#172126" stroke-width="3" stroke-linejoin="round" stroke-linecap="round" fill="#4d4542" d="M74 231h52l-5 91h-20l-2-56-4 56H73Z"/><path fill="#726760" d="M78 238h44l-3 18H81Z"/><path fill="#29353a" d="m76 282 18 4-4 16-18-4zm48 0-18 4 4 16 18-4Z"/></g><g transform="translate(0 1080)"><title>Сапоги Железного Шага</title><path stroke="#172126" stroke-width="3" stroke-linejoin="round" stroke-linecap="round" fill="#47372b" d="M73 299h25v37l-10 17H60v-15l14-8Z"/><path stroke="#172126" stroke-width="3" stroke-linejoin="round" stroke-linecap="round" fill="#47372b" d="M127 299h-25v37l10 17h28v-15l-14-8Z"/><path fill="#9a7248" d="M70 309h28v8H70zm32 0h28v8h-28Z"/></g><g transform="translate(200 1080)"><title>Кольцо Старого Сплава</title><circle cx="45" cy="224" r="8" fill="none" stroke="#d2aa68" stroke-width="5"/><circle cx="155" cy="224" r="8" fill="none" stroke="#d2aa68" stroke-width="5"/></g><g transform="translate(400 1080)"><title>Перстень Реакторщика</title><circle cx="45" cy="224" r="9" fill="none" stroke="#5fd6ff" stroke-width="5"/><circle cx="45" cy="224" r="3" fill="#eaffff"/><circle cx="155" cy="224" r="9" fill="none" stroke="#5fd6ff" stroke-width="5"/><circle cx="155" cy="224" r="3" fill="#eaffff"/></g><g transform="translate(600 1080)"><title>Осколок Реактора</title><path stroke="#172126" stroke-width="3" stroke-linejoin="round" stroke-linecap="round" fill="#246b88" d="m159 174 14 21-7 28h-14l-7-28Z"/><path fill="#63e5ff" d="m159 183 7 13-4 17h-6l-4-17Z"/></g><g transform="translate(800 1080)"><title>Сердце Маяка</title><circle stroke="#172126" stroke-width="3" stroke-linejoin="round" stroke-linecap="round" cx="160" cy="190" r="18" fill="#2c3154"/><circle cx="160" cy="190" r="12" fill="#b86cff"/><circle cx="160" cy="190" r="6" fill="#5ddfff"/><circle cx="160" cy="190" r="2" fill="#fff"/></g><g transform="translate(0 1440)"><title>Меч Пыльной Стражи</title><path stroke="#172126" stroke-width="3" stroke-linejoin="round" stroke-linecap="round" fill="#d3dee1" d="m159 130 9 6-37 128-11 7 1-13Z"/><path stroke="#735033" stroke-width="8" d="m124 252 22 8"/><path stroke="#3d2b21" stroke-width="9" d="m130 261-8 28"/></g><g transform="translate(200 1440)"><title>Копьё Руинного Охотника</title><path stroke="#755034" stroke-width="8" d="m121 300 46-154"/><path stroke="#172126" stroke-width="3" stroke-linejoin="round" stroke-linecap="round" fill="#b8c6ca" d="m169 125 13 25-26 8Z"/><path fill="#68dfff" d="m168 134 6 12-12 4Z"/></g><g transform="translate(400 1440)"><title>Клинок Последнего Контура</title><path stroke="#172126" stroke-width="3" stroke-linejoin="round" stroke-linecap="round" fill="#e4ffff" d="m158 126 10 7-37 132-11 6 2-13Z"/><path fill="#63dfff" d="m157 137 5 3-32 116-5 3Z"/><path stroke="#496f92" stroke-width="8" d="m124 252 22 8"/></g><g transform="translate(600 1440)"><title>Молот Стального Приора</title><path stroke="#704b2e" stroke-width="10" d="m149 171-28 120"/><path stroke="#172126" stroke-width="3" stroke-linejoin="round" stroke-linecap="round" fill="#5c656e" d="M121 140h64v35h-64Z"/><path fill="#c8873f" d="M129 146h48v8h-48Z"/><circle cx="153" cy="158" r="8" fill="#ff9940"/></g><g transform="translate(800 1440)"><title>Щит Заслона</title><path stroke="#172126" stroke-width="3" stroke-linejoin="round" stroke-linecap="round" fill="#31505f" d="m45 160 42 21-10 71-32 26-32-26-10-71Z"/><path fill="#98713e" d="m45 171 30 16-7 58-23 19-23-19-7-58Z"/><path fill="#20455d" d="m45 184 20 11-5 43-15 13-15-13-5-43Z"/><circle cx="45" cy="215" r="8" fill="#55d9ff"/></g></svg>