<svg xmlns="http://www.w3.org/2000/svg" viewBox="0 0 700 620">
  <defs>
    <linearGradient id="armor" x1="0" y1="0" x2="1" y2="1"><stop stop-color="#41484c"/><stop offset=".48" stop-color="#191e21"/><stop offset="1" stop-color="#080b0d"/></linearGradient>
    <radialGradient id="core"><stop stop-color="#fff3db"/><stop offset=".15" stop-color="#ff9a42"/><stop offset=".45" stop-color="#e13d20"/><stop offset="1" stop-color="#44100b"/></radialGradient>
    <filter id="ds"><feDropShadow dx="0" dy="20" stdDeviation="13" flood-opacity=".5"/></filter>
  </defs>
  <ellipse cx="350" cy="575" rx="210" ry="28" fill="#000" opacity=".35"/>
  <g filter="url(#ds)">
    <path d="M223 164 350 94l128 70 66 137-51 226H208l-53-226z" fill="url(#armor)" stroke="#111416" stroke-width="18"/>
    <path d="m209 194-86 84 40 94 102-54zM491 194l87 84-40 94-102-54z" fill="#252c30" stroke="#101315" stroke-width="16"/>
    <path d="M267 116 350 59l83 57-26 99H292z" fill="#202629" stroke="#0e1113" stroke-width="15"/>
    <path d="m294 95 56-51 57 51-21 28-36-16-36 16z" fill="#8c4d2b"/>
    <path d="M309 132h82l-11 63-30 18-30-18z" fill="#121719" stroke="#7d4629" stroke-width="9"/>
    <circle cx="350" cy="164" r="20" fill="url(#core)" filter="url(#ds)"/>
    <path d="M240 232h220l49 176-74 106H266l-75-106z" fill="#202528" stroke="#704126" stroke-width="12"/>
    <circle cx="350" cy="340" r="54" fill="#111719" stroke="#794229" stroke-width="15"/>
    <circle cx="350" cy="340" r="28" fill="url(#core)"/>
    <path d="M260 500 228 585h82l34-86zM440 500l32 85h-82l-34-86z" fill="#1d2326" stroke="#0d1113" stroke-width="14"/>
    <path d="M122 278 71 409l58 29 66-129z" fill="#282d30" stroke="#111416" stroke-width="14"/>
    <path d="M578 278 629 409l-58 29-66-129z" fill="#282d30" stroke="#111416" stroke-width="14"/>
    <path d="m59 413-24 111 41 11 32-107zM641 413l24 111-41 11-32-107z" fill="#13181a" stroke="#5f3825" stroke-width="9"/>
    <g fill="url(#core)">
      <circle cx="218" cy="271" r="14"/><circle cx="482" cy="271" r="14"/><circle cx="269" cy="448" r="13"/><circle cx="431" cy="448" r="13"/>
    </g>
    <path d="m175 198-42-82 57 24 14-78 44 91zM525 198l42-82-57 24-14-78-44 91z" fill="#353b3e" stroke="#111416" stroke-width="10"/>
  </g>
</svg>